<?xml version="1.0" encoding="utf-8"?>
<!-- Generator: Adobe Illustrator 16.0.0, SVG Export Plug-In . SVG Version: 6.00 Build 0)  -->
<!DOCTYPE svg PUBLIC "-//W3C//DTD SVG 1.1//EN" "http://www.w3.org/Graphics/SVG/1.1/DTD/svg11.dtd">
<svg version="1.1" xmlns="http://www.w3.org/2000/svg" xmlns:xlink="http://www.w3.org/1999/xlink" x="0px" y="0px" width="450px"
	 height="450px" viewBox="0 0 450 450" enable-background="new 0 0 450 450" xml:space="preserve">
<g id="Border" display="none">
	<path display="inline" fill="#292825" d="M395.434,0H54.567C24.431,0,0,24.655,0,55.065v339.869C0,425.345,24.431,450,54.567,450
		h340.867C425.568,450,450,425.345,450,394.935V55.065C450,24.655,425.568,0,395.434,0z M439.964,393.052
		c0,25.721-20.799,46.575-46.452,46.575H56.489c-25.654,0-46.453-20.854-46.453-46.575V58.13c0-25.721,20.799-46.575,46.453-46.575
		h337.022c25.653,0,46.452,20.854,46.452,46.575V393.052z"/>
</g>
<g id="Layer_2">
	<path fill-rule="evenodd" clip-rule="evenodd" fill="#292825" d="M223,124.407c0,7.666,0.061,14.998-0.02,22.328
		c-0.061,5.479-1.791,6.593-6.528,3.988c-25.5-14.02-50.953-28.123-76.419-42.202c-3.856-2.133-7.655-4.375-11.563-6.409
		c-3.31-1.723-5.401-4.125-5.476-8.008c-0.075-3.923,2.037-6.342,5.29-8.137c18.887-10.423,37.745-20.897,56.627-31.329
		c10.3-5.689,20.613-11.356,30.959-16.963c1.659-0.899,6.474-4.265,6.911,0.818c0.306,11.124,0.302,17.506,0.486,27.341
		c55.496-1.178,101.69,19.694,137.854,61.15c30.729,35.228,45.022,77.433,41.592,123.942
		c-7.574,102.689-93.192,169.686-186.206,163.835C120.795,408.742,51.09,327.594,53.142,240.35c19.054,0,38.123,0,57.469,0
		c0.848,40.703,18.297,73.085,51.757,96.193c23.266,16.068,50.003,22.786,77.86,19.096
		c75.621-10.018,108.604-72.966,104.481-122.404C338.479,158.519,275.675,121.724,223,124.407z"/>
</g>
</svg>
